<svg viewBox="0 0 256 249" xmlns="http://www.w3.org/2000/svg" preserveAspectRatio="xMidYMid"><path d="M127.892.354c-4.283 0-8.25 1.173-11.53 3.486-3.281 2.313-5.78 5.559-7.496 9.66-.614 1.446-1.096 2.993-1.473 4.649-.377 1.656-.629 3.412-.755 5.268-.126 1.857-.126 3.784 0 5.768.125 1.984.377 4.005.755 6.062.377 2.058.88 4.133 1.473 6.242.63 2.14 1.07 4.133 1.329 5.989.251 1.856.377 3.593.377 5.197 0 1.605-.126 3.127-.377 4.577a39.475 39.475 0 0 1-1.33 4.217l-2.157-1.605a46.632 46.632 0 0 1-2.155-1.676 83.01 83.01 0 0 1-4.24-3.665 75.227 75.227 0 0 1-4.025-3.95c-2.692-2.802-5.31-5.82-7.854-9.084-1.3-1.641-2.55-3.376-3.74-5.197a53.98 53.98 0 0 0-4.025-5.125 41.09 41.09 0 0 0-4.599-4.613c-1.665-1.418-3.508-2.6-5.537-3.522-2.028-.922-4.204-1.39-6.527-1.39-1.928 0-3.838.306-5.717.92a20.91 20.91 0 0 0-5.466 2.657c-3.356 2.282-5.88 5.202-7.567 8.761-1.688 3.559-2.532 7.414-2.532 11.567 0 4.152.735 8.007 2.245 11.567 1.51 3.559 3.607 6.685 6.293 9.371 2.686 2.686 5.812 4.783 9.371 6.294 3.56 1.51 7.416 2.245 11.567 2.245h.18c1.76 0 3.501-.234 5.215-.72a33.98 33.98 0 0 0 5.07-1.893c1.635-.78 3.234-1.682 4.8-2.693a62.188 62.188 0 0 0 4.583-3.307 76.87 76.87 0 0 0 8.616-8.04c1.284-1.418 2.51-2.802 3.668-4.145a80.57 80.57 0 0 1 3.598-3.919c1.17-1.226 2.373-2.36 3.598-3.378 1.225-1.019 2.5-1.865 3.812-2.55l.181 2.586c.04.866.106 1.73.181 2.585.151 1.746.428 3.396.828 4.937a42.57 42.57 0 0 0 1.402 4.613l-1.977.899c-.614.283-1.257.572-1.943.866-.682.294-1.351.61-2.012.95-.66.34-1.283.712-1.87 1.114a23.3 23.3 0 0 0-3.382 2.91 75.47 75.47 0 0 0-3.164 3.521c-2.134 2.608-4.192 5.44-6.185 8.472a86.43 86.43 0 0 0-5.035 9.407 59.24 59.24 0 0 0-3.382 9.587 30.38 30.38 0 0 0-1.22 8.435c0 2.313.39 4.554 1.148 6.726a20.728 20.728 0 0 0 3.381 5.983c2.953 3.606 6.55 6.01 10.793 7.252 4.244 1.241 8.537 1.49 12.873.756 4.336-.735 8.25-2.334 11.747-4.794 3.498-2.46 6.14-5.663 7.927-9.623 1.786-3.96 2.356-8.169 1.685-12.62a27.36 27.36 0 0 0-1.4-5.054 53.35 53.35 0 0 0-2.157-5.125 63.856 63.856 0 0 0-2.803-5.053 101.93 101.93 0 0 0-3.167-4.793c-1.075-1.542-2.11-2.974-3.092-4.29-.985-1.315-1.877-2.502-2.694-3.557a69.65 69.65 0 0 1-2.154-2.946c-.577-.858-1.006-1.626-1.293-2.3l2.156-.9c.79-.333 1.597-.683 2.407-1.042a46.64 46.64 0 0 0 4.564-2.407c1.445-.858 2.72-1.842 3.848-2.946l1.797 1.966c.608.663 1.223 1.335 1.833 2.011 1.245 1.38 2.56 2.653 3.92 3.81a34.7 34.7 0 0 0 4.24 3.234c1.47.943 3.046 1.744 4.727 2.407a30.12 30.12 0 0 0 5.286 1.57c1.826.36 3.761.541 5.788.541 4.151 0 8.007-.735 11.567-2.245 3.56-1.51 6.685-3.608 9.371-6.294 2.687-2.686 4.784-5.812 6.294-9.37 1.51-3.56 2.245-7.416 2.245-11.568 0-4.152-.735-8.008-2.245-11.567-1.51-3.56-3.607-6.685-6.294-9.371-2.686-2.686-5.811-4.784-9.37-6.294-3.56-1.51-7.416-2.245-11.568-2.245-2.323 0-4.494.467-6.526 1.39-2.03.922-3.876 2.103-5.538 3.52a41.105 41.105 0 0 0-4.599 4.614 53.98 53.98 0 0 0-4.024 5.124 69.506 69.506 0 0 0-3.74 5.197c-2.544 3.264-5.162 6.282-7.854 9.084a75.1 75.1 0 0 1-4.025 3.95 82.864 82.864 0 0 1-4.24 3.665c-.72.58-1.437 1.132-2.155 1.677l-2.156 1.605a39.495 39.495 0 0 1-1.33-4.217c-.25-1.45-.376-2.972-.376-4.578 0-1.604.125-3.34.377-5.196.251-1.856.699-3.85 1.33-5.99a96.263 96.263 0 0 0 1.472-6.241c.378-2.057.63-4.078.756-6.062.126-1.984.126-3.911 0-5.768a41.12 41.12 0 0 0-.756-5.268 35.1 35.1 0 0 0-1.472-4.65c-1.712-4.1-4.21-7.346-7.496-9.66-3.287-2.313-7.256-3.485-11.53-3.485Z" fill="#326CE5"/><path d="M127.892 69.628c1.334 0 2.637.055 3.92.162a52.688 52.688 0 0 1 3.812.52c1.26.212 2.505.48 3.74.792a45.298 45.298 0 0 1 7.064 2.513l-1.796 3.772a127.066 127.066 0 0 1-1.833 3.737c-.63 1.241-1.283 2.46-1.977 3.665a82.785 82.785 0 0 1-2.12 3.593l-.109-.036a38.16 38.16 0 0 0-3.453-1.137 52.258 52.258 0 0 0-7.248-1.317 54.254 54.254 0 0 0-7.316.016 44.06 44.06 0 0 0-7.077 1.137l-.18-.036a91.165 91.165 0 0 1-4.025-7.186 127.12 127.12 0 0 1-3.668-7.437l-.036-.072c4.464-1.806 9.057-2.959 13.798-3.45a61.33 61.33 0 0 1 7.928-.236Zm35.36 15.528c1.172.828 2.294 1.71 3.38 2.657a46.57 46.57 0 0 1 3.13 2.91c.999.991 1.952 2.02 2.875 3.09a47.4 47.4 0 0 1 5.034 7.294c.756 1.31 1.44 2.657 2.084 4.037.644 1.38 1.234 2.789 1.758 4.253l-3.92 1.497c-1.277.498-2.543 1.003-3.813 1.534-1.269.531-2.536 1.079-3.795 1.645a86.22 86.22 0 0 1-3.74 1.57l-.072-.108a36.98 36.98 0 0 0-1.725-3.055 48.19 48.19 0 0 0-4.096-5.665 44.918 44.918 0 0 0-4.997-5.089 51.35 51.35 0 0 0-5.538-4.325l.072-.108c1.36-2.142 2.772-4.187 4.24-6.133a86.28 86.28 0 0 1 4.599-5.737l.036-.036c1.33.624 2.61 1.31 3.848 2.048a42.28 42.28 0 0 1 3.632 2.37v-.65Zm-70.54-.65.036.035a94.71 94.71 0 0 1 4.527 5.7c1.405 1.92 2.754 3.93 4.06 6.026l.18.252-.18.144a47.03 47.03 0 0 0-4.6 4.002 51.628 51.628 0 0 0-4.166 4.505 49.18 49.18 0 0 0-3.596 4.865 49.28 49.28 0 0 0-2.803 5.017l-.18-.072c-1.28-.576-2.562-1.117-3.848-1.606a108.6 108.6 0 0 0-3.956-1.498 120.88 120.88 0 0 0-3.919-1.316l-3.848-1.21.072-.145c.514-1.428 1.092-2.83 1.725-4.216a50.22 50.22 0 0 1 2.047-4.037 49.3 49.3 0 0 1 7.532-10.053 48.95 48.95 0 0 1 3.272-2.982 51.52 51.52 0 0 1 3.488-2.693c1.194-.828 2.432-1.587 3.703-2.3a45.24 45.24 0 0 1 3.884-2.012l.57 1.594Zm72.227 38.09c.317 1.298.568 2.61.764 3.919a47.88 47.88 0 0 1-.467 15.132 51.63 51.63 0 0 1-1.653 6.17 52.11 52.11 0 0 1-2.372 5.773 56.78 56.78 0 0 1-2.946 5.268l-3.956-1.678c-1.33-.54-2.654-1.1-3.957-1.677-1.3-.577-2.597-1.167-3.883-1.786a87.41 87.41 0 0 1-3.776-1.893l.035-.145c.59-1.1 1.108-2.235 1.546-3.414a44.72 44.72 0 0 0 2.19-13.917 48.34 48.34 0 0 0-.793-7.365 45.86 45.86 0 0 0-2.047-6.98l.18-.073c1.28-.56 2.58-1.088 3.884-1.57a113.86 113.86 0 0 1 7.893-2.801c1.334-.412 2.668-.788 3.992-1.137l.072.144c.48 1.23.91 2.468 1.294 3.702Zm-73.95-3.557c1.335.355 2.668.74 4.024 1.173a90.32 90.32 0 0 1 7.928 2.91c1.299.541 2.584 1.104 3.848 1.678l.145.072a47.12 47.12 0 0 0-2.012 6.8 46.73 46.73 0 0 0-.721 14.135c.24 2.38.654 4.695 1.258 6.907.302 1.11.652 2.213 1.04 3.306l-.145.073a102.34 102.34 0 0 1-7.712 3.593 113.86 113.86 0 0 1-3.956 1.605l-3.884 1.497-.144-.252a52.21 52.21 0 0 1-2.587-5.017 47.93 47.93 0 0 1-2.012-5.412 45.94 45.94 0 0 1-1.329-5.737 50.34 50.34 0 0 1-.468-5.88c0-1.984.14-3.948.432-5.88a50.83 50.83 0 0 1 1.293-5.809 53.22 53.22 0 0 1 2.084-5.593 54.39 54.39 0 0 1 2.766-5.34l.145.036.001.135Zm59.665 41.542c-.992 1.089-2.03 2.12-3.13 3.127a51.43 51.43 0 0 1-6.87 5.305 52.06 52.06 0 0 1-7.496 4.109 53.72 53.72 0 0 1-5.143 2.012 49.15 49.15 0 0 1-5.358 1.353l-.18-4.253c-.072-1.41-.18-2.82-.324-4.217a96.18 96.18 0 0 0-.504-4.145c-.192-1.371-.42-2.729-.684-4.073l.144-.072a43.56 43.56 0 0 0 6.942-2.154 44.53 44.53 0 0 0 6.401-3.199 45.33 45.33 0 0 0 5.646-3.99 42.54 42.54 0 0 0 4.78-4.65l.145.073c1.13 1.29 2.209 2.627 3.236 4.036a90.57 90.57 0 0 1 5.178 7.946l.036.072c-.823.898-1.67 1.77-2.551 2.621l-.268.099Zm-43.25 16.088a53.28 53.28 0 0 1-7.893-2.478 49.44 49.44 0 0 1-7.244-3.63 47.01 47.01 0 0 1-6.4-4.686 47.14 47.14 0 0 1-5.358-5.593l.108-.108a89.39 89.39 0 0 1 5.25-8.076 93.43 93.43 0 0 1 3.236-4.181l.108.108c1.364 1.705 2.87 3.3 4.528 4.757a46.39 46.39 0 0 0 5.25 3.99 52.22 52.22 0 0 0 5.825 3.127c2.02.937 4.107 1.74 6.257 2.407l-.073.144a89.51 89.51 0 0 0-1.292 8.507 96.71 96.71 0 0 0-.36 4.253l-.216 4.001-.108-.036-.324-.18c-1.1-.436-2.208-.9-3.308-1.39l.014.064Z" fill="#fff"/></svg>